<?xml version="1.0" standalone="no"?><!DOCTYPE svg PUBLIC "-//W3C//DTD SVG 1.1//EN" "http://www.w3.org/Graphics/SVG/1.1/DTD/svg11.dtd"><svg class="icon" width="200px" height="200.00px" viewBox="0 0 1024 1024" version="1.1" xmlns="http://www.w3.org/2000/svg"><path fill="#333333" d="M462.5 815.1c-12.3-2.8-24.7 4.9-27.6 17.2s4.8 24.7 17.2 27.6c12 2.7 32 4.7 59.6 5.7 11.8 0.4 21.6 0.6 26.4 0.6h8.4c1.1 0 2.2 0 3.5-0.1 53-0.1 104.4-10.6 152.8-31.2 46.9-20 89-48.6 125.2-85.1 36.2-36.4 64.6-78.8 84.4-126.1 20.5-48.9 30.9-100.9 30.9-154.4 0-56.7-11-111.8-32.8-163.7-21.1-50.1-51.2-95.1-89.5-133.7-38.3-38.6-83-69-132.7-90.2-51.5-22-106.2-33.1-162.6-33.1-59.8 0-117.8 11.8-172.4 35.1-52.8 22.4-100.1 54.6-140.8 95.6s-72.6 88.7-94.9 141.8c-23.1 55-34.8 113.4-34.8 173.6 0 63.8 12.4 125.8 36.9 184.1 23.6 56.4 57.5 107 100.6 150.4 43.1 43.4 93.4 77.6 149.3 101.4 58 24.7 119.5 37.2 182.9 37.2 95.6 0 188.6-27.5 268.7-79.3 10.6-6.9 13.7-21.1 6.8-31.8-6.9-10.6-21.1-13.7-31.8-6.8-72.7 47-157 71.9-243.8 71.9-57.2 0-112.6-11.3-164.8-33.5-50.5-21.5-95.8-52.3-134.7-91.5-38.9-39.3-69.5-84.9-90.8-135.8-22.1-52.6-33.3-108.6-33.3-166.3 0-54 10.5-106.5 31.2-155.8 20-47.7 48.6-90.4 85.1-127.2C281.5 175 324 146.1 371.2 126c48.9-20.8 100.8-31.4 154.4-31.4 99.2 0 192.5 39 262.7 109.7 70.2 70.7 108.9 164.9 108.9 265 0 93.8-36.2 181.9-102 248.2-65.7 66.2-153.1 102.7-246 102.7-0.7 0-67.3-0.6-86.7-5.1z"  /><path fill="#333333" d="M613.1 483.1V384c0-13.7-11.1-24.8-24.8-24.8-13.7 0-24.8 11.1-24.8 24.8v99.1c0 13.7 11.1 24.8 24.8 24.8 13.7 0 24.8-11.1 24.8-24.8zM315.7 384v99.1c0 13.7 11.1 24.8 24.8 24.8s24.8-11.1 24.8-24.8V384c0-13.7-11.1-24.8-24.8-24.8s-24.8 11.1-24.8 24.8z"  /></svg>